<svg xmlns="http://www.w3.org/2000/svg" viewBox="0 0 100 125"><switch><g><path d="M95 45.5l-40.8-40c-2.3-2.3-6.1-2.3-8.4 0L5 45.5c-2.4 2.3-2.4 6.1-.1 8.5 2.3 2.4 6.1 2.4 8.5.1l.2-.2 12 41.1c.5 1.3 1.7 2.1 3.2 2.1h42.3c1.4 0 2.7-.8 3.2-2.1l12-41.1.2.2c1.2 1.1 2.7 1.7 4.2 1.7 1.6 0 3.1-.6 4.3-1.8 2.4-2.4 2.4-6.2 0-8.5z"/></g></switch><text y="115" font-size="5" font-weight="bold" font-family="'Helvetica Neue', Helvetica, Arial-Unicode, Arial, Sans-serif">Created by Mahmure Alp</text><text y="120" font-size="5" font-weight="bold" font-family="'Helvetica Neue', Helvetica, Arial-Unicode, Arial, Sans-serif">from the Noun Project</text></svg>